<?xml version="1.0" encoding="UTF-8" standalone="no"?>
<svg
   id="Layer_1"
   version="1.1"
   viewBox="0 0 710.72302 221.89999"
   width="710.72302"
   height="221.89999"
   xmlns="http://www.w3.org/2000/svg"
   xmlns:svg="http://www.w3.org/2000/svg">
  <!-- Generator: Adobe Illustrator 30.0.0, SVG Export Plug-In . SVG Version: 2.1.1 Build 123)  -->
  <defs
     id="defs7">
    <style
       id="style1">
      .st0 {
        fill: url(#linear-gradient1);
      }

      .st1 {
        fill: #e41a15;
      }

      .st2 {
        fill: #0051b6;
      }

      .st3 {
        fill: url(#linear-gradient);
      }
    </style>
    <linearGradient
       id="linear-gradient"
       x1="132.60001"
       y1="422.39999"
       x2="235.8"
       y2="422.39999"
       gradientUnits="userSpaceOnUse">
      <stop
         offset="0"
         stop-color="#ee3324"
         id="stop1" />
      <stop
         offset="1"
         stop-color="#f8c100"
         id="stop2" />
    </linearGradient>
    <linearGradient
       id="linear-gradient1"
       x1="76.699997"
       y1="470.10001"
       x2="183.60001"
       y2="470.10001"
       gradientUnits="userSpaceOnUse">
      <stop
         offset="0"
         stop-color="#00aeef"
         id="stop3" />
      <stop
         offset=".2"
         stop-color="#00a4e9"
         id="stop4" />
      <stop
         offset=".4"
         stop-color="#008bd9"
         id="stop5" />
      <stop
         offset=".8"
         stop-color="#0062c0"
         id="stop6" />
      <stop
         offset=".9"
         stop-color="#0051b6"
         id="stop7" />
    </linearGradient>
    <clipPath
       clipPathUnits="userSpaceOnUse"
       id="clipPath25">
      <rect
         style="fill:none;stroke-width:0.844341"
         id="rect25"
         width="783"
         height="232.61536"
         x="45.69231"
         y="-549.34619"
         transform="scale(1,-1)" />
    </clipPath>
    <clipPath
       clipPathUnits="userSpaceOnUse"
       id="clipPath26">
      <rect
         style="fill:none;stroke-width:0.844341"
         id="rect26"
         width="783"
         height="232.61536"
         x="45.69231"
         y="-549.34619"
         transform="scale(1,-1)" />
    </clipPath>
  </defs>
  <g
     id="g23"
     clip-path="url(#clipPath26)"
     transform="translate(-76.576968,-321.1)">
    <g
       id="g12">
      <path
         class="st2"
         d="m 330.5,526.1 h -28.8 l -5.4,15.1 h -17.5 l 28.1,-74.6 h 19.2 l 27.8,74.6 h -18.1 l -5.4,-15.1 z m -23.4,-15.2 h 18.1 l -8.9,-25.8 -9.1,25.8 z"
         id="path7" />
      <path
         class="st2"
         d="m 402.8,542.8 c -5.4,0 -10.4,-0.9 -15.1,-2.8 -4.7,-1.9 -8.8,-4.5 -12.2,-7.8 -3.5,-3.4 -6.2,-7.4 -8.3,-12.2 -2,-4.8 -3,-10.1 -3,-15.9 0,-5.8 1,-11.1 3.1,-15.9 2.1,-4.8 4.9,-8.9 8.4,-12.3 3.5,-3.4 7.6,-6 12.2,-7.9 4.7,-1.9 9.6,-2.8 14.8,-2.8 5.2,0 10.4,0.8 14.5,2.4 4.1,1.6 7.5,3.7 10.3,6.2 2.8,2.5 5,5.2 6.6,8.1 1.6,2.9 2.7,5.7 3.3,8.4 l -15.7,4.9 c -0.3,-1.3 -0.8,-2.7 -1.6,-4.3 -0.8,-1.6 -1.9,-3.1 -3.4,-4.6 -1.5,-1.4 -3.3,-2.6 -5.6,-3.6 -2.3,-0.9 -5.1,-1.4 -8.4,-1.4 -3.3,0 -5,0.5 -7.6,1.4 -2.5,0.9 -4.8,2.3 -6.8,4.2 -2,1.9 -3.7,4.2 -4.9,7.1 -1.3,2.9 -1.9,6.3 -1.9,10.2 0,3.9 0.6,6.6 1.8,9.4 1.2,2.7 2.8,5 4.8,6.9 2,1.9 4.3,3.3 6.8,4.3 2.6,1 5.2,1.5 8,1.5 2.8,0 6,-0.5 8.3,-1.4 2.3,-0.9 4.2,-2.1 5.8,-3.6 1.5,-1.4 2.8,-3 3.6,-4.6 0.9,-1.6 1.5,-3.1 1.8,-4.4 l 15.9,4.5 c -0.6,2.6 -1.7,5.4 -3.3,8.4 -1.6,3 -3.8,5.8 -6.6,8.5 -2.8,2.6 -6.4,4.8 -10.6,6.6 -4.2,1.8 -9.2,2.6 -14.9,2.6 z"
         id="path8" />
      <path
         class="st2"
         d="m 510.9,514.4 v 26.8 h -16.6 v -74.6 h 28.1 c 3.8,0 7.2,0.6 10.4,1.8 3.1,1.2 5.8,2.8 8.1,4.9 2.3,2.1 4,4.6 5.3,7.6 1.2,2.9 1.8,6.1 1.8,9.6 0,3.5 -0.6,6.7 -1.8,9.7 -1.2,2.9 -3,5.5 -5.3,7.6 -2.3,2.1 -5,3.7 -8.1,4.9 -3.1,1.2 -6.6,1.7 -10.4,1.7 z m 9.8,-14.3 c 3.2,0 5.7,-0.8 7.7,-2.5 2,-1.7 2.9,-4 2.9,-6.9 0,-2.9 -1,-5.4 -2.9,-7 -2,-1.7 -4.5,-2.5 -7.7,-2.5 H 511 v 19 h 9.7 z"
         id="path9" />
      <path
         class="st2"
         d="m 588.5,513.5 h -5.9 v 27.8 H 566 v -74.6 h 29.5 c 3.6,0 7,0.6 9.9,1.8 3,1.2 5.5,2.8 7.6,4.9 2.1,2.1 3.7,4.6 4.9,7.4 1.2,2.8 1.7,5.9 1.7,9.2 0,5 -1.3,9.4 -3.9,13.1 -2.6,3.7 -6.2,6.3 -10.8,7.9 l 15.1,30.2 h -18.3 l -13.4,-27.8 z m 3.9,-14.3 c 3.4,0 6,-0.8 7.8,-2.5 1.8,-1.7 2.7,-3.9 2.7,-6.5 0,-2.6 -0.9,-5 -2.7,-6.6 -1.8,-1.6 -4.4,-2.4 -7.8,-2.4 h -9.8 v 18.1 h 9.8 z"
         id="path10" />
      <path
         class="st2"
         d="m 636.3,504 c 0,-5.9 1,-11.2 3.1,-16 2.1,-4.8 4.9,-8.9 8.4,-12.3 3.5,-3.4 7.7,-6 12.4,-7.8 4.7,-1.8 9.7,-2.7 14.9,-2.7 5.2,0 10.2,0.9 14.9,2.7 4.7,1.8 8.8,4.4 12.3,7.8 3.5,3.4 6.3,7.5 8.4,12.3 2.1,4.8 3.1,10.1 3.1,16 0,5.9 -1,11.2 -3.1,16 -2.1,4.8 -4.9,8.9 -8.4,12.2 -3.5,3.4 -7.6,6 -12.3,7.8 -4.7,1.8 -9.6,2.7 -14.9,2.7 -5.3,0 -10.2,-0.9 -14.9,-2.7 -4.7,-1.8 -8.8,-4.4 -12.4,-7.8 -3.5,-3.4 -6.3,-7.5 -8.4,-12.2 -2.1,-4.8 -3.1,-10.1 -3.1,-16 z m 17.2,-0.1 c 0,3.9 0.6,7.3 1.9,10.1 1.3,2.8 2.9,5.1 5,7 2.1,1.9 4.4,3.2 6.9,4.1 2.6,0.9 5.1,1.3 7.7,1.3 2.6,0 5.2,-0.4 7.7,-1.3 2.6,-0.9 4.9,-2.2 6.9,-4.1 2,-1.9 3.7,-4.2 4.9,-7 1.3,-2.8 1.9,-6.2 1.9,-10.1 0,-3.9 -0.6,-7.2 -1.9,-10.1 -1.3,-2.9 -2.9,-5.2 -4.9,-7 -2,-1.8 -4.3,-3.2 -6.9,-4.1 -2.6,-0.9 -5.1,-1.4 -7.7,-1.4 -2.6,0 -5.2,0.5 -7.7,1.4 -2.6,0.9 -4.9,2.3 -6.9,4.1 -2.1,1.8 -3.7,4.2 -5,7 -1.3,2.9 -1.9,6.2 -1.9,10.1 z"
         id="path11" />
      <path
         class="st2"
         d="m 771,489.2 c -0.1,-0.8 -0.4,-1.8 -0.9,-2.9 -0.5,-1.1 -1.2,-2.1 -2.1,-3 -0.9,-0.9 -2.2,-1.8 -3.7,-2.4 -1.5,-0.7 -3.4,-1 -5.7,-1 -2.3,0 -5.6,0.8 -7.4,2.5 -1.9,1.6 -2.8,3.5 -2.8,5.5 0,2 0.6,3.3 1.7,4.6 1.2,1.2 3,2.1 5.6,2.6 l 10,1.9 c 3.6,0.6 6.7,1.7 9.4,3.1 2.7,1.4 4.9,3.1 6.7,5.1 1.8,2 3.2,4.2 4.1,6.6 0.9,2.4 1.4,5 1.4,7.6 0,2.6 -0.6,5.8 -1.8,8.6 -1.2,2.8 -3,5.3 -5.3,7.5 -2.3,2.2 -5.2,4 -8.7,5.4 -3.4,1.4 -7.4,2.1 -11.8,2.1 -4.4,0 -9.6,-0.8 -13.4,-2.3 -3.7,-1.5 -6.8,-3.4 -9.3,-5.7 -2.5,-2.3 -4.3,-4.9 -5.6,-7.7 -1.3,-2.8 -2,-5.5 -2.3,-8.2 l 15.2,-3.7 c 0.1,1.7 0.5,3.3 1.2,4.9 0.7,1.6 1.6,2.9 2.9,4.1 1.3,1.2 2.8,2.1 4.7,2.8 1.9,0.7 4.1,1.1 6.6,1.1 2.5,0 5.9,-0.7 7.7,-2.2 1.9,-1.4 2.8,-3.3 2.8,-5.6 0,-2.3 -0.7,-3.5 -2.2,-4.8 -1.4,-1.3 -3.4,-2.2 -5.8,-2.7 L 752,511.1 c -6.4,-1.2 -11.4,-3.7 -14.9,-7.7 -3.6,-3.9 -5.4,-8.7 -5.4,-14.2 0,-5.5 0.7,-6.7 2.2,-9.7 1.4,-2.9 3.4,-5.5 5.8,-7.6 2.5,-2.1 5.3,-3.7 8.5,-4.9 3.2,-1.2 6.6,-1.8 10.2,-1.8 3.6,0 8.6,0.6 11.9,1.9 3.3,1.3 6,2.9 8.1,4.8 2.1,1.9 3.8,4.1 4.9,6.4 1.1,2.3 1.9,4.6 2.3,6.8 l -14.9,4.2 z"
         id="path12" />
    </g>
    <g
       id="g22">
      <path
         class="st1"
         d="m 313.4,412.8 c 0,-0.5 -0.2,-1 -0.5,-1.6 -0.3,-0.6 -0.7,-1.2 -1.2,-1.7 -0.5,-0.5 -1.2,-1 -2.1,-1.4 -0.9,-0.4 -2,-0.6 -3.2,-0.6 -1.2,0 -3.2,0.5 -4.2,1.4 -1.1,0.9 -1.6,2 -1.6,3.1 0,1.1 0.3,1.9 1,2.6 0.7,0.7 1.7,1.2 3.2,1.5 l 5.7,1.1 c 2,0.4 3.8,0.9 5.3,1.8 1.5,0.8 2.8,1.8 3.8,2.9 1,1.1 1.8,2.4 2.3,3.7 0.5,1.4 0.8,2.8 0.8,4.3 0,1.5 -0.3,3.3 -1,4.9 -0.7,1.6 -1.7,3 -3,4.3 -1.3,1.3 -3,2.3 -4.9,3.1 -2,0.8 -4.2,1.2 -6.7,1.2 -2.5,0 -5.5,-0.4 -7.6,-1.3 -2.1,-0.9 -3.9,-1.9 -5.3,-3.3 -1.4,-1.3 -2.5,-2.8 -3.2,-4.4 -0.7,-1.6 -1.2,-3.2 -1.3,-4.7 l 8.7,-2.1 c 0,1 0.3,1.9 0.7,2.8 0.4,0.9 0.9,1.7 1.6,2.3 0.7,0.7 1.6,1.2 2.7,1.6 1.1,0.4 2.3,0.6 3.8,0.6 1.5,0 3.3,-0.4 4.4,-1.2 1.1,-0.8 1.6,-1.9 1.6,-3.2 0,-1.3 -0.4,-2 -1.2,-2.7 -0.8,-0.7 -1.9,-1.2 -3.3,-1.5 l -5.8,-1.1 c -3.6,-0.7 -6.5,-2.1 -8.5,-4.4 -2,-2.2 -3.1,-4.9 -3.1,-8.1 0,-3.2 0.4,-3.8 1.2,-5.5 0.8,-1.7 1.9,-3.1 3.3,-4.3 1.4,-1.2 3,-2.1 4.9,-2.8 1.8,-0.7 3.8,-1 5.8,-1 2,0 4.9,0.4 6.8,1.1 1.9,0.7 3.4,1.6 4.6,2.7 1.2,1.1 2.1,2.3 2.8,3.7 0.6,1.3 1.1,2.6 1.3,3.9 l -8.5,2.4 z"
         id="path13" />
      <path
         class="st1"
         d="m 360.3,443.3 c -3.1,0 -6,-0.5 -8.6,-1.6 -2.7,-1.1 -5,-2.5 -7,-4.5 -2,-2 -3.5,-4.2 -4.7,-7 -1.2,-2.7 -1.7,-5.7 -1.7,-9 0,-3.3 0.6,-6.3 1.8,-9.1 1.2,-2.7 2.8,-5.1 4.8,-7 2,-1.9 4.3,-3.4 7,-4.5 2.7,-1.1 5.5,-1.6 8.4,-1.6 2.9,0 6,0.5 8.3,1.4 2.3,0.9 4.3,2.1 5.9,3.5 1.6,1.4 2.8,3 3.7,4.6 0.9,1.7 1.5,3.3 1.9,4.8 l -8.9,2.8 c -0.2,-0.7 -0.5,-1.5 -0.9,-2.5 -0.5,-0.9 -1.1,-1.8 -1.9,-2.6 -0.8,-0.8 -1.9,-1.5 -3.2,-2 -1.3,-0.5 -2.9,-0.8 -4.8,-0.8 -1.9,0 -2.9,0.3 -4.3,0.8 -1.4,0.5 -2.7,1.3 -3.9,2.4 -1.2,1.1 -2.1,2.4 -2.8,4 -0.7,1.6 -1.1,3.6 -1.1,5.8 0,2.2 0.3,3.8 1,5.3 0.7,1.6 1.6,2.9 2.7,4 1.1,1.1 2.4,1.9 3.9,2.5 1.5,0.6 3,0.8 4.6,0.8 1.6,0 3.4,-0.3 4.7,-0.8 1.3,-0.5 2.4,-1.2 3.3,-2 0.9,-0.8 1.6,-1.7 2.1,-2.6 0.5,-0.9 0.8,-1.8 1,-2.5 l 9.1,2.6 c -0.4,1.5 -1,3.1 -1.9,4.8 -0.9,1.7 -2.2,3.3 -3.8,4.8 -1.6,1.5 -3.6,2.7 -6,3.7 -2.4,1 -5.2,1.5 -8.5,1.5 z"
         id="path14" />
      <path
         class="st1"
         d="m 395.4,421.2 c 0,-3.4 0.6,-6.4 1.8,-9.1 1.2,-2.7 2.8,-5.1 4.8,-7 2,-1.9 4.4,-3.4 7,-4.5 2.7,-1 5.5,-1.6 8.5,-1.6 3,0 5.8,0.5 8.5,1.6 2.7,1 5,2.5 7,4.5 2,1.9 3.6,4.3 4.8,7 1.2,2.7 1.8,5.8 1.8,9.1 0,3.3 -0.6,6.4 -1.8,9.1 -1.2,2.7 -2.8,5 -4.8,7 -2,1.9 -4.4,3.4 -7,4.5 -2.7,1 -5.5,1.6 -8.5,1.6 -3,0 -5.8,-0.5 -8.5,-1.6 -2.7,-1 -5,-2.5 -7,-4.5 -2,-1.9 -3.6,-4.3 -4.8,-7 -1.2,-2.7 -1.8,-5.8 -1.8,-9.1 z m 9.8,0 c 0,2.2 0.4,4.2 1.1,5.8 0.7,1.6 1.7,2.9 2.8,4 1.2,1.1 2.5,1.8 4,2.3 1.5,0.5 2.9,0.8 4.4,0.8 1.5,0 2.9,-0.2 4.4,-0.8 1.5,-0.5 2.8,-1.3 3.9,-2.3 1.2,-1.1 2.1,-2.4 2.8,-4 0.7,-1.6 1.1,-3.5 1.1,-5.8 0,-2.3 -0.4,-4.1 -1.1,-5.8 -0.7,-1.6 -1.7,-3 -2.8,-4 -1.2,-1 -2.5,-1.8 -3.9,-2.3 -1.5,-0.5 -2.9,-0.8 -4.4,-0.8 -1.5,0 -2.9,0.3 -4.4,0.8 -1.5,0.5 -2.8,1.3 -4,2.3 -1.2,1 -2.1,2.4 -2.8,4 -0.7,1.6 -1.1,3.6 -1.1,5.8 z"
         id="path15" />
      <path
         class="st1"
         d="m 475.8,409 v 33.4 h -9.5 V 409 h -13.1 v -9 h 35.7 v 9 z"
         id="path16" />
      <path
         class="st1"
         d="m 526.1,409 v 33.4 h -9.5 V 409 h -13.1 v -9 h 35.7 v 9 z"
         id="path17" />
      <path
         class="st1"
         d="m 577.1,412.8 c 0,-0.5 -0.2,-1 -0.5,-1.6 -0.3,-0.6 -0.7,-1.2 -1.2,-1.7 -0.5,-0.5 -1.2,-1 -2.1,-1.4 -0.9,-0.4 -2,-0.6 -3.2,-0.6 -1.2,0 -3.2,0.5 -4.2,1.4 -1.1,0.9 -1.6,2 -1.6,3.1 0,1.1 0.3,1.9 1,2.6 0.7,0.7 1.7,1.2 3.2,1.5 l 5.7,1.1 c 2,0.4 3.8,0.9 5.3,1.8 1.5,0.8 2.8,1.8 3.8,2.9 1,1.1 1.8,2.4 2.3,3.7 0.5,1.4 0.8,2.8 0.8,4.3 0,1.5 -0.3,3.3 -1,4.9 -0.7,1.6 -1.7,3 -3,4.3 -1.3,1.3 -3,2.3 -4.9,3.1 -2,0.8 -4.2,1.2 -6.7,1.2 -2.5,0 -5.5,-0.4 -7.6,-1.3 -2.1,-0.9 -3.9,-1.9 -5.3,-3.3 -1.4,-1.3 -2.5,-2.8 -3.2,-4.4 -0.7,-1.6 -1.2,-3.2 -1.3,-4.7 l 8.7,-2.1 c 0,1 0.3,1.9 0.7,2.8 0.4,0.9 0.9,1.7 1.6,2.3 0.7,0.7 1.6,1.2 2.7,1.6 1.1,0.4 2.3,0.6 3.8,0.6 1.5,0 3.3,-0.4 4.4,-1.2 1.1,-0.8 1.6,-1.9 1.6,-3.2 0,-1.3 -0.4,-2 -1.2,-2.7 -0.8,-0.7 -1.9,-1.2 -3.3,-1.5 l -5.8,-1.1 c -3.6,-0.7 -6.5,-2.1 -8.5,-4.4 -2,-2.2 -3.1,-4.9 -3.1,-8.1 0,-3.2 0.4,-3.8 1.2,-5.5 0.8,-1.7 1.9,-3.1 3.3,-4.3 1.4,-1.2 3,-2.1 4.9,-2.8 1.8,-0.7 3.8,-1 5.8,-1 2,0 4.9,0.4 6.8,1.1 1.9,0.7 3.4,1.6 4.6,2.7 1.2,1.1 2.1,2.3 2.8,3.7 0.6,1.3 1.1,2.6 1.3,3.9 l -8.5,2.4 z"
         id="path18" />
      <path
         class="st1"
         d="m 604.7,442.4 v -42.5 h 15.4 c 3.2,0 6.1,0.5 8.7,1.5 2.6,1 4.9,2.4 6.7,4.2 1.8,1.8 3.3,4.1 4.3,6.7 1,2.6 1.5,5.6 1.5,8.9 0,3.3 -0.5,6.2 -1.5,8.8 -1,2.6 -2.5,4.8 -4.3,6.7 -1.8,1.9 -4.1,3.2 -6.8,4.2 -2.6,1 -5.6,1.5 -8.8,1.5 h -15.3 z m 15,-8.9 c 1.6,0 3.2,-0.2 4.6,-0.7 1.4,-0.5 2.7,-1.2 3.8,-2.2 1.1,-1 1.9,-2.3 2.5,-3.8 0.6,-1.6 0.9,-3.4 0.9,-5.5 0,-2.1 -0.3,-4 -0.9,-5.5 -0.6,-1.6 -1.5,-2.8 -2.5,-3.9 -1.1,-1 -2.3,-1.8 -3.8,-2.2 -1.5,-0.4 -3,-0.7 -4.6,-0.7 h -5.5 v 24.6 h 5.5 z"
         id="path19" />
      <path
         class="st1"
         d="m 683,433.8 h -16.4 l -3.1,8.6 h -9.9 l 16,-42.5 h 11 l 15.8,42.5 h -10.3 z m -13.3,-8.6 H 680 l -5.1,-14.7 z"
         id="path20" />
      <path
         class="st1"
         d="m 712.4,442.4 v -42.5 h 9.5 v 33.4 h 18.3 v 9 h -27.8 z"
         id="path21" />
      <path
         class="st1"
         d="m 756.5,442.4 v -42.5 h 26.9 v 8.9 H 766 v 8.1 h 15.8 v 8.3 H 766 v 8.2 h 17.5 v 9 z"
         id="path22" />
    </g>
  </g>
  <g
     id="g24"
     clip-path="url(#clipPath25)"
     transform="translate(-76.576968,-321.1)">
    <path
       class="st3"
       d="m 163.1,333 c -1,3.1 -1.8,6.5 -2,10.2 -1.4,23.6 11.8,40.8 28.4,55.9 0,0 7.6,6 7.6,6 -2,-8.7 -5.9,-16.6 -8.5,-25.1 -3,-10.1 -2.4,-20.7 2.7,-30 -0.1,2.1 -0.7,4 -0.9,6.1 -1.5,28.8 24,38.2 36.3,59.6 10.9,18.8 12.3,43.2 2.7,62.9 -7.9,16.2 -26.1,35.2 -42,43.7 -15.9,8.5 -3.9,2.1 -3.7,0.8 1.8,-13.6 4.7,-27.2 4.3,-41 -0.3,-10.7 -2.9,-21.1 -9.4,-29.8 -6.4,-8.6 -14.3,-15.8 -20.4,-24.7 -8,-11.8 -13,-25.1 -14.1,-39.4 -0.6,-0.1 -0.7,0.8 -0.8,1.2 -3,14 1.9,31.8 8.9,43.7 0,0 5.6,8.8 5.6,8.8 -2,1.7 -12.6,-6.5 -14.2,-8 -4.8,-4.2 -8,-10 -9.6,-16.1 -4.2,-15.8 1,-33.6 6.5,-48.4 5.4,-14.7 12.4,-29 21.1,-42 1.4,-2.1 3,-4.7 5.1,-6.3 -1.3,3.9 -2.4,7.9 -3.7,11.8 z M 186,521.5 c 0.8,0.2 1.1,-0.5 1.6,-0.9 15.4,-12.7 25.8,-43.6 22.8,-63.2 -3.2,-20.8 -25.4,-37.2 -38.1,-53 -10.3,-12.8 -16.2,-25.3 -18.3,-41.7 -2.1,-16.4 -0.2,-2.4 -0.8,-2.5 -4.5,11.8 -1,24.9 5.1,35.5 11.8,20.2 30.6,35.6 38.7,58.1 7.2,20 2.7,39.8 -6.2,58.4 -1.5,3.1 -3.4,6 -4.8,9.2 z"
       id="path23"
       style="fill:url(#linear-gradient)" />
    <path
       class="st0"
       d="m 165.3,510.3 c -1.4,-1.4 -2.6,-1.2 -2.9,-3.8 -0.8,-6.9 0.6,-15.2 0,-22.2 0,-0.6 0.4,-1.2 1,-1.7 1.3,-0.4 2.6,-0.9 3.8,-1.5 0.6,0 1.1,0 1.4,0.1 1.8,1.3 10.1,11 11.3,11.3 0.6,0.1 0.8,-0.3 1,-0.8 0.8,-1.3 3.1,-8.7 2.6,-9.9 l -7.4,-8.2 c 0.9,-2.6 1.5,-5.1 1.7,-7.6 0.1,-0.9 0.2,-1.9 0.2,-2.8 0,-11.1 -9,-20.1 -20.1,-20.1 -11.1,0 -7.7,1.2 -10.8,3.2 -6.1,-6 -12.5,-11.5 -18,-18 -0.8,-8.6 0.7,-18.1 0,-26.6 -0.5,-5.9 -8.5,-5.1 -9.3,-1.3 v 17.5 c -0.7,0.1 -1,0 -1.6,-0.4 -4.3,-2.8 -11.1,-15.3 -17.1,-10.5 -1.8,1.5 -2.3,3.7 -1.5,6 0.8,2.5 9,8.8 11.1,11.6 0.3,0.4 0.9,0.6 0.7,1.3 H 94.7 c -1.3,0 -3.8,2 -4.1,3.4 -0.8,3.3 0.6,6.4 4.1,6.8 8.5,1 18.8,-0.8 27.4,0 l 17.6,17.9 -2.1,4.7 h -25.1 c -6.8,-6 -12.6,-13 -19.2,-19.1 -5,-3.2 -11.2,2.4 -6.7,8 2.4,3 5.7,5.5 8.4,8 0.7,0.6 1.9,2.5 2,3.5 H 79.5 c -1,0 -2.8,3.1 -2.9,4.2 -0.2,2.3 0.9,5.1 3.4,5.5 4,0.6 9.7,0.6 13.8,0.5 0.8,0 3.1,-1 3.3,0.2 0.3,1.3 -11.5,10.7 -12.2,13.1 -1.2,3.9 2.4,8.2 6.5,6.9 2.2,-0.7 11.8,-10.9 14.2,-13.3 1.2,-1.2 2.3,-2.4 3.5,-3.6 1.3,-1.3 1.8,-3.2 4,-3.6 4.8,0.4 9.6,0.3 14.5,0.3 1.7,0 3,0 4.9,0 4.4,0.1 5.9,-1.1 7.7,3.9 l -2.3,3.1 -15.6,15.3 c -8.8,1.5 -19.3,-0.6 -28,0.4 -3.6,0.4 -4.8,3 -4.1,6.3 0.3,1.5 2.7,3.9 4.1,3.9 H 111 c 0.2,0.8 -0.3,0.9 -0.7,1.3 -2.1,2.7 -10.1,8.9 -11,11.2 -1.9,4.7 3,8.7 7.4,6.5 3.4,-1.8 8,-8.3 11.4,-10.8 0.4,-0.3 0.6,-0.9 1.3,-0.7 v 16.2 c 0,1.7 2.7,3.8 4.3,4.1 2.8,0.5 5.7,-1.7 5.9,-4.6 v -27 c 0,0 14.9,-15 14.9,-15 3.4,-2.9 3.8,-2.6 7.8,-0.6 v 24.7 c -0.6,2.1 -6.3,6.3 -8,8.1 -1.9,1.9 -6,5.9 -7.3,7.8 -3.5,4.8 2.5,11.2 8.5,6.2 2.2,-1.8 4,-5.1 6,-6.8 0.5,-0.4 0.7,-0.3 1.4,-0.3 v 16.2 c 0,1.6 3,3.7 4.7,3.8 1.6,0 5.1,-1.8 5.1,-3.4 v -16.7 c 0.7,-0.1 1,0 1.6,0.4 2.9,1.9 6.7,7.3 9.7,9.8 4.8,4 11.3,1.2 8.9,-5.2 -5.7,-5.9 -11.6,-11.6 -17.4,-17.5 z"
       id="path24"
       style="fill:url(#linear-gradient1)" />
  </g>
</svg>
